<svg width="150" viewBox="0 0 1995 276" fill="none" xmlns="http://www.w3.org/2000/svg"><path d="M637.995 108.2C633.039 113.533 630.563 120.848 630.563 130.145C630.563 139.455 633.039 146.744 637.995 152.011C642.947 157.291 649.512 159.924 657.685 159.924C665.609 159.924 672.143 157.224 677.283 151.824C682.421 146.438 684.993 139.203 684.993 130.145C684.993 120.968 682.421 113.68 677.283 108.28C672.143 102.893 665.609 100.193 657.685 100.193C649.512 100.193 642.947 102.867 637.995 108.2V108.2ZM671.71 83.4483C677.841 87.5315 682.267 93.0644 684.993 100.007V44H711V181.697H684.993V160.11C682.267 167.053 677.841 172.613 671.71 176.762C665.58 180.925 658.179 183 649.512 183C640.843 183 633.039 180.885 626.106 176.669C619.168 172.453 613.752 166.348 609.851 158.341C605.949 150.335 604 140.945 604 130.145C604 119.359 605.949 109.969 609.851 101.962C613.752 93.9555 619.168 87.8506 626.106 83.6345C633.039 79.4183 640.843 77.3036 649.512 77.3036C658.179 77.3036 665.58 79.3519 671.71 83.4483" fill="#E5EAF0"></path><path d="M799.697 104.25C794.882 99.8886 788.969 97.7145 781.968 97.7145C774.838 97.7145 768.834 99.8886 763.957 104.25C759.08 108.599 756.388 115.014 755.89 123.471H806.359C806.734 115.014 804.51 108.599 799.697 104.25V104.25ZM832.059 135.035H755.89C756.266 144.252 758.767 151.028 763.394 155.376C768.021 159.738 773.775 161.912 780.654 161.912C786.779 161.912 791.879 160.418 795.944 157.43C800.008 154.443 802.604 150.401 803.732 145.306H831.687C830.307 152.522 827.371 158.991 822.868 164.713C818.366 170.435 812.577 174.917 805.514 178.145C798.446 181.386 790.596 183 781.968 183C771.837 183 762.832 180.853 754.953 176.558C747.073 172.263 740.942 166.14 736.567 158.177C732.186 150.214 730 140.824 730 129.993C730 119.176 732.186 109.759 736.567 101.729C740.942 93.6997 747.073 87.5773 754.953 83.349C762.832 79.1207 771.837 77 781.968 77C792.224 77 801.198 79.1207 808.888 83.349C816.584 87.5773 822.523 93.3929 826.711 100.796C830.904 108.198 833 116.628 833 126.085C833 128.699 832.686 131.674 832.059 135.035" fill="#E5EAF0"></path><path d="M896.688 155.527L922.908 78H951L912.606 182H880.394L842 78H870.28L896.688 155.527" fill="#E5EAF0"></path><path d="M1045.25 87.8174C1054.17 95.0334 1059.75 104.864 1062 117.309H1034.12C1033 111.84 1030.44 107.518 1026.44 104.344C1022.44 101.169 1017.4 99.5818 1011.29 99.5818C1004.29 99.5818 998.456 102.17 993.782 107.331C989.104 112.493 986.766 120.043 986.766 129.993C986.766 139.957 989.104 147.507 993.782 152.669C998.456 157.844 1004.29 160.418 1011.29 160.418C1017.4 160.418 1022.44 158.831 1026.44 155.656C1030.44 152.482 1033 148.16 1034.12 142.691H1062C1059.75 155.136 1054.17 164.967 1045.25 172.169C1036.33 179.385 1025.2 183 1011.85 183C1001.73 183 992.755 180.853 984.893 176.558C977.032 172.263 970.917 166.14 966.551 158.177C962.182 150.214 960 140.824 960 129.993C960 119.176 962.182 109.759 966.551 101.729C970.917 93.6997 977.032 87.5773 984.893 83.349C992.755 79.1207 1001.73 77 1011.85 77C1025.2 77 1036.33 80.6146 1045.25 87.8174" fill="#E5EAF0"></path><path d="M1170.35 88.9337C1177.46 96.7714 1181 107.782 1181 121.951V182H1154.82V124.937C1154.82 116.726 1152.7 110.354 1148.46 105.822C1144.22 101.277 1138.42 99.0107 1131.07 99.0107C1123.58 99.0107 1117.61 101.437 1113.11 106.289C1108.62 111.127 1106.38 118.098 1106.38 127.176V182H1080V44H1106.38V99.3839C1109.12 92.4259 1113.64 86.9876 1119.93 83.0687C1126.23 79.1499 1133.5 77.1904 1141.72 77.1904C1153.7 77.1904 1163.23 81.1093 1170.35 88.9337" fill="#E5EAF0"></path><path d="M1233.32 107.985C1228.31 113.334 1225.82 120.67 1225.82 129.993C1225.82 139.33 1228.31 146.64 1233.32 151.922C1238.32 157.217 1244.94 159.858 1253.19 159.858C1261.19 159.858 1267.79 157.15 1272.97 151.735C1278.16 146.333 1280.75 139.077 1280.75 129.993C1280.75 120.79 1278.16 113.48 1272.97 108.065C1267.79 102.663 1261.19 99.9553 1253.19 99.9553C1244.94 99.9553 1238.32 102.636 1233.32 107.985V107.985ZM1267.44 83.1624C1273.68 87.2572 1278.13 92.806 1280.75 99.7686V78.3071H1307V181.693H1280.75V160.045C1278.13 167.007 1273.68 172.583 1267.44 176.744C1261.19 180.919 1253.69 183 1244.94 183C1236.19 183 1228.31 180.879 1221.31 176.651C1214.32 172.423 1208.85 166.3 1204.91 158.271C1200.97 150.241 1199 140.824 1199 129.993C1199 119.176 1200.97 109.759 1204.91 101.729C1208.85 93.6997 1214.32 87.5773 1221.31 83.349C1228.31 79.1207 1236.19 77 1244.94 77C1253.69 77 1261.19 79.0541 1267.44 83.1624" fill="#E5EAF0"></path><path d="M1357 44V182H1331V44H1357Z" fill="#E5EAF0"></path><path d="M1407 44V182H1381V44H1407Z" fill="#E5EAF0"></path><path d="M1495.7 104.25C1490.88 99.8886 1484.98 97.7145 1477.98 97.7145C1470.84 97.7145 1464.83 99.8886 1459.95 104.25C1455.09 108.599 1452.39 115.014 1451.89 123.471H1502.35C1502.73 115.014 1500.52 108.599 1495.7 104.25V104.25ZM1528.06 135.035H1451.89C1452.27 144.252 1454.76 151.028 1459.39 155.376C1464.02 159.738 1469.77 161.912 1476.66 161.912C1482.78 161.912 1487.89 160.418 1491.95 157.43C1496.01 154.443 1498.6 150.401 1499.73 145.306H1527.69C1526.3 152.522 1523.37 158.991 1518.88 164.713C1514.37 170.435 1508.58 174.917 1501.51 178.145C1494.44 181.386 1486.6 183 1477.98 183C1467.84 183 1458.84 180.853 1450.96 176.558C1443.07 172.263 1436.94 166.14 1432.57 158.177C1428.19 150.214 1426 140.824 1426 129.993C1426 119.176 1428.19 109.759 1432.57 101.729C1436.94 93.6997 1443.07 87.5773 1450.96 83.349C1458.84 79.1207 1467.84 77 1477.98 77C1488.22 77 1497.21 79.1207 1504.89 83.349C1512.59 87.5773 1518.53 93.3929 1522.71 100.796C1526.91 108.198 1529 116.628 1529 126.085C1529 128.699 1528.69 131.674 1528.06 135.035" fill="#E5EAF0"></path><path d="M1637.35 88.7647C1644.44 96.6166 1648 107.647 1648 121.842V182H1621.81V124.833C1621.81 116.607 1619.69 110.224 1615.46 105.684C1611.21 101.13 1605.42 98.86 1598.05 98.86C1590.58 98.86 1584.59 101.29 1580.1 106.151C1575.62 110.999 1573.38 117.982 1573.38 127.076V182H1547V78.4956H1573.38V99.2339C1576.12 92.2632 1580.64 86.815 1586.93 82.889C1593.23 78.9631 1600.49 77 1608.72 77C1620.69 77 1630.23 80.9261 1637.35 88.7647" fill="#E5EAF0"></path><path d="M1700.31 108.096C1695.31 113.463 1692.82 120.826 1692.82 130.182C1692.82 139.553 1695.31 146.888 1700.31 152.189C1705.31 157.503 1711.94 160.154 1720.18 160.154C1728.18 160.154 1734.77 157.436 1739.96 152.001C1745.15 146.58 1747.75 139.298 1747.75 130.182C1747.75 120.946 1745.15 113.611 1739.96 108.176C1734.77 102.755 1728.18 100.037 1720.18 100.037C1711.94 100.037 1705.31 102.728 1700.31 108.096V108.096ZM1734.44 83.1843C1740.68 87.2938 1745.12 92.8624 1747.75 99.8499V78.3118H1774V182.441C1774 192.052 1772.08 200.7 1768.28 208.383C1764.46 216.053 1758.78 222.077 1751.22 226.454C1743.65 230.818 1734.49 233 1723.75 233C1708.75 233 1696.62 229.453 1687.37 222.331C1678.13 215.21 1672.5 205.532 1670.5 193.297H1696.55C1698.06 198.544 1700.96 202.627 1705.28 205.572C1709.59 208.504 1715.12 209.976 1721.87 209.976C1729.62 209.976 1735.87 207.687 1740.62 203.136C1745.38 198.571 1747.75 191.678 1747.75 182.441V160.341C1745.12 167.328 1740.68 172.924 1734.44 177.1C1728.18 181.29 1720.68 183.378 1711.94 183.378C1703.19 183.378 1695.31 181.25 1688.31 177.006C1681.3 172.763 1675.85 166.619 1671.91 158.561C1667.97 150.502 1666 141.052 1666 130.182C1666 119.326 1667.97 109.876 1671.91 101.818C1675.85 93.7593 1681.3 87.615 1688.31 83.3717C1695.31 79.1283 1703.19 77 1711.94 77C1720.68 77 1728.18 79.0615 1734.44 83.1843Z" fill="#E5EAF0"></path><path d="M1861.65 104.239C1856.85 99.8888 1850.96 97.6973 1843.99 97.6973C1836.91 97.6973 1830.93 99.8888 1826.06 104.239C1821.2 108.6 1818.53 115.012 1818.04 123.48H1868.28C1868.66 115.012 1866.44 108.6 1861.65 104.239ZM1893.88 135.061H1818.04C1818.41 144.284 1820.9 151.066 1825.5 155.419C1830.12 159.784 1835.84 161.961 1842.69 161.961C1848.79 161.961 1853.87 160.465 1857.91 157.475C1861.95 154.483 1864.54 150.438 1865.66 145.339H1893.5C1892.13 152.561 1889.21 159.036 1884.72 164.764C1880.24 170.491 1874.48 174.977 1867.44 178.209C1860.4 181.452 1852.59 183.068 1843.99 183.068C1833.91 183.068 1824.94 180.919 1817.09 176.62C1809.26 172.321 1803.16 166.193 1798.79 158.221C1794.44 150.252 1792.26 140.853 1792.26 130.018C1792.26 119.183 1794.44 109.751 1798.79 101.711C1803.16 93.6839 1809.26 87.5611 1817.09 83.3149C1824.94 79.0823 1833.91 76.9729 1843.99 76.9729C1854.21 76.9729 1863.14 79.0823 1870.8 83.3149C1878.46 87.5611 1884.37 93.3825 1888.55 100.779C1892.71 108.194 1894.81 116.631 1894.81 126.094C1894.81 128.71 1894.5 131.699 1893.88 135.061" fill="#E5EAF0"></path><path d="M1979.42 86.4942C1987.02 92.8442 1991.76 101.315 1993.62 111.897H1968.96C1967.97 106.918 1965.72 102.93 1962.23 99.9428C1958.75 96.9531 1954.2 95.4603 1948.61 95.4603C1944.11 95.4603 1940.63 96.5194 1938.13 98.6346C1935.65 100.754 1934.39 103.618 1934.39 107.227C1934.39 110.094 1935.4 112.397 1937.38 114.138C1939.37 115.883 1941.88 117.251 1944.87 118.247C1947.86 119.245 1952.15 120.429 1957.75 121.797C1965.59 123.543 1971.98 125.379 1976.9 127.308C1981.82 129.24 1986.06 132.29 1989.61 136.462C1993.16 140.638 1994.92 146.271 1994.92 153.361C1994.92 162.213 1991.47 169.37 1984.56 174.843C1977.64 180.33 1968.34 183.068 1956.63 183.068C1943.18 183.068 1932.4 180.049 1924.32 174.003C1916.22 167.968 1911.29 159.343 1909.56 148.14H1934.77C1935.4 153.241 1937.64 157.26 1941.51 160.183C1945.36 163.107 1950.41 164.576 1956.63 164.576C1961.11 164.576 1964.55 163.482 1966.91 161.305C1969.27 159.129 1970.46 156.299 1970.46 152.8C1970.46 149.81 1969.43 147.393 1967.37 145.524C1965.32 143.655 1962.77 142.227 1959.71 141.225C1956.66 140.224 1952.34 139.049 1946.73 137.675C1939 135.932 1932.76 134.158 1927.97 132.35C1923.17 130.547 1919.05 127.652 1915.63 123.666C1912.21 119.68 1910.49 114.203 1910.49 107.227C1910.49 98.2611 1913.91 90.9765 1920.77 85.372C1927.61 79.7704 1937.08 76.9668 1949.16 76.9668C1961.74 76.9668 1971.82 80.1426 1979.42 86.4942" fill="#E5EAF0"></path><path d="M531.927 170.787L367.306 258.291C361.954 261.136 355.921 262.645 349.887 262.645C336.085 262.645 323.498 255.072 317.038 242.892C312.379 234.105 311.405 224.061 314.315 214.552C317.225 205.043 323.658 197.257 332.428 192.596L497.049 105.093C502.401 102.235 508.421 100.752 514.468 100.752C519.66 100.752 524.692 101.821 529.284 103.824L531.914 105.226C538.481 108.698 543.793 114.014 547.277 120.585C547.397 120.785 547.531 120.985 547.664 121.186C556.741 139.189 549.786 161.292 531.927 170.787ZM17.7363 155.469C17.6562 155.308 17.5361 155.175 17.4293 155.015C8.20588 136.972 15.1335 114.748 33.0731 105.226L197.694 17.709C203.046 14.8777 209.066 13.3553 215.113 13.3553C228.901 13.3553 241.488 20.9276 247.962 33.1077C252.607 41.8687 253.568 51.9387 250.658 61.4343C247.749 70.9432 241.328 78.756 232.572 83.4037L67.9514 170.921C62.5989 173.765 56.5656 175.261 50.5323 175.261C45.3399 175.261 40.3078 174.179 35.716 172.203L33.0731 170.787C26.5193 167.315 21.2201 162.013 17.7363 155.469V155.469ZM559.103 114.214C553.751 104.158 545.315 96.4117 535.317 91.8843L411.608 26.1363L378.986 8.80106L378.866 8.73428L373.567 5.92967C366.652 2.25697 358.91 0.253683 351.115 0.0533538C350.968 0.0533538 350.822 0.0267476 350.675 0.0267476C350.408 0.0267476 350.141 1.09733e-05 349.887 1.09733e-05L349.74 0.0133141C333.923 -0.146949 318.279 7.06487 308.335 20.754L201.866 162.534C199.663 165.472 200.25 169.665 203.201 171.882C206.15 174.099 210.328 173.498 212.543 170.547L319.067 28.6738C331.107 12.0866 354.399 8.40042 370.99 20.4469C382.136 28.5669 387.876 42.0824 385.953 55.7448C385.113 61.728 382.777 67.4975 379.279 72.3054L265.635 223.754C265.475 219.36 264.754 214.953 263.432 210.653C259.481 197.738 250.752 187.134 238.832 180.79L148.312 132.498C145.053 130.761 141.01 132.003 139.288 135.262C137.552 138.508 138.793 142.554 142.051 144.29L232.572 192.596C241.342 197.257 247.762 205.043 250.672 214.552C253.582 224.061 252.621 234.105 247.962 242.892C243.998 250.358 237.724 256.074 230.303 259.399C229.302 259.707 228.287 259.987 227.259 260.241C226.338 260.428 225.511 260.815 224.803 261.349C221.693 262.191 218.436 262.645 215.113 262.645C209.066 262.645 203.046 261.136 197.694 258.291L86.2248 199.034L63.4131 186.92C67.1505 185.919 70.7812 184.516 74.2116 182.713L238.832 95.2097C250.738 88.8659 259.468 78.2752 263.419 65.3606C267.37 52.4194 266.062 38.7437 259.748 26.8441C250.952 10.2836 233.853 1.09733e-05 215.113 1.09733e-05C206.89 1.09733e-05 198.708 2.05664 191.433 5.92967L26.8129 93.4201C2.21262 106.495 -7.171 137.159 5.89666 161.772C11.2492 171.842 19.6851 179.575 29.6827 184.116L31.9919 185.344H32.0186L68.8991 204.95L191.433 270.084C198.708 273.957 206.89 276 215.113 276C222.174 276 229.008 274.531 235.242 271.833C245.092 268.481 253.702 262.191 259.802 253.79L390.025 80.2518C394.857 73.5741 398.02 65.7613 399.168 57.6146C400.343 49.2408 399.395 40.9606 396.645 33.308L416.547 43.8721L501.574 89.0797C497.836 90.068 494.206 91.4703 490.788 93.2866L416.56 132.738L364.238 105.106C360.967 103.397 356.95 104.665 355.241 107.937C353.533 111.209 354.787 115.243 358.058 116.952L402.278 140.35L326.155 180.79C314.248 187.134 305.505 197.738 301.554 210.653C297.603 223.541 298.911 237.23 305.252 249.156C314.035 265.703 331.133 276 349.887 276C358.096 276 366.292 273.957 373.567 270.084L538.187 182.58C562.787 169.492 572.171 138.855 559.103 114.214" fill="#F0402C"></path><path d="M416 44L396.396 33.4573L396.382 33.4307C392.556 23.2213 386.508 13.5982 379 9L411.135 26.3001C413.581 31.9247 415.237 37.8557 416 44" fill="#C73622"></path><path d="M637.995 108.2C633.039 113.533 630.563 120.848 630.563 130.145C630.563 139.455 633.039 146.744 637.995 152.011C642.947 157.291 649.512 159.924 657.685 159.924C665.609 159.924 672.143 157.224 677.283 151.824C682.421 146.438 684.993 139.203 684.993 130.145C684.993 120.968 682.421 113.68 677.283 108.28C672.143 102.893 665.609 100.193 657.685 100.193C649.512 100.193 642.947 102.867 637.995 108.2V108.2ZM671.71 83.4483C677.841 87.5315 682.267 93.0644 684.993 100.007V44H711V181.697H684.993V160.11C682.267 167.053 677.841 172.613 671.71 176.762C665.58 180.925 658.179 183 649.512 183C640.843 183 633.039 180.885 626.106 176.669C619.168 172.453 613.752 166.348 609.851 158.341C605.949 150.335 604 140.945 604 130.145C604 119.359 605.949 109.969 609.851 101.962C613.752 93.9555 619.168 87.8506 626.106 83.6345C633.039 79.4183 640.843 77.3036 649.512 77.3036C658.179 77.3036 665.58 79.3519 671.71 83.4483" fill="#E5EAF0"></path><path d="M799.697 104.25C794.882 99.8886 788.969 97.7145 781.968 97.7145C774.838 97.7145 768.834 99.8886 763.957 104.25C759.08 108.599 756.388 115.014 755.89 123.471H806.359C806.734 115.014 804.51 108.599 799.697 104.25V104.25ZM832.059 135.035H755.89C756.266 144.252 758.767 151.028 763.394 155.376C768.021 159.738 773.775 161.912 780.654 161.912C786.779 161.912 791.879 160.418 795.944 157.43C800.008 154.443 802.604 150.401 803.732 145.306H831.687C830.307 152.522 827.371 158.991 822.868 164.713C818.366 170.435 812.577 174.917 805.514 178.145C798.446 181.386 790.596 183 781.968 183C771.837 183 762.832 180.853 754.953 176.558C747.073 172.263 740.942 166.14 736.567 158.177C732.186 150.214 730 140.824 730 129.993C730 119.176 732.186 109.759 736.567 101.729C740.942 93.6997 747.073 87.5773 754.953 83.349C762.832 79.1207 771.837 77 781.968 77C792.224 77 801.198 79.1207 808.888 83.349C816.584 87.5773 822.523 93.3929 826.711 100.796C830.904 108.198 833 116.628 833 126.085C833 128.699 832.686 131.674 832.059 135.035" fill="#E5EAF0"></path><path d="M896.688 155.527L922.908 78H951L912.606 182H880.394L842 78H870.28L896.688 155.527" fill="#E5EAF0"></path><path d="M1045.25 87.8174C1054.17 95.0334 1059.75 104.864 1062 117.309H1034.12C1033 111.84 1030.44 107.518 1026.44 104.344C1022.44 101.169 1017.4 99.5818 1011.29 99.5818C1004.29 99.5818 998.456 102.17 993.782 107.331C989.104 112.493 986.766 120.043 986.766 129.993C986.766 139.957 989.104 147.507 993.782 152.669C998.456 157.844 1004.29 160.418 1011.29 160.418C1017.4 160.418 1022.44 158.831 1026.44 155.656C1030.44 152.482 1033 148.16 1034.12 142.691H1062C1059.75 155.136 1054.17 164.967 1045.25 172.169C1036.33 179.385 1025.2 183 1011.85 183C1001.73 183 992.755 180.853 984.893 176.558C977.032 172.263 970.917 166.14 966.551 158.177C962.182 150.214 960 140.824 960 129.993C960 119.176 962.182 109.759 966.551 101.729C970.917 93.6997 977.032 87.5773 984.893 83.349C992.755 79.1207 1001.73 77 1011.85 77C1025.2 77 1036.33 80.6146 1045.25 87.8174" fill="#E5EAF0"></path><path d="M1170.35 88.9337C1177.46 96.7714 1181 107.782 1181 121.951V182H1154.82V124.937C1154.82 116.726 1152.7 110.354 1148.46 105.822C1144.22 101.277 1138.42 99.0107 1131.07 99.0107C1123.58 99.0107 1117.61 101.437 1113.11 106.289C1108.62 111.127 1106.38 118.098 1106.38 127.176V182H1080V44H1106.38V99.3839C1109.12 92.4259 1113.64 86.9876 1119.93 83.0687C1126.23 79.1499 1133.5 77.1904 1141.72 77.1904C1153.7 77.1904 1163.23 81.1093 1170.35 88.9337" fill="#E5EAF0"></path><path d="M1233.32 107.985C1228.31 113.334 1225.82 120.67 1225.82 129.993C1225.82 139.33 1228.31 146.64 1233.32 151.922C1238.32 157.217 1244.94 159.858 1253.19 159.858C1261.19 159.858 1267.79 157.15 1272.97 151.735C1278.16 146.333 1280.75 139.077 1280.75 129.993C1280.75 120.79 1278.16 113.48 1272.97 108.065C1267.79 102.663 1261.19 99.9553 1253.19 99.9553C1244.94 99.9553 1238.32 102.636 1233.32 107.985V107.985ZM1267.44 83.1624C1273.68 87.2572 1278.13 92.806 1280.75 99.7686V78.3071H1307V181.693H1280.75V160.045C1278.13 167.007 1273.68 172.583 1267.44 176.744C1261.19 180.919 1253.69 183 1244.94 183C1236.19 183 1228.31 180.879 1221.31 176.651C1214.32 172.423 1208.85 166.3 1204.91 158.271C1200.97 150.241 1199 140.824 1199 129.993C1199 119.176 1200.97 109.759 1204.91 101.729C1208.85 93.6997 1214.32 87.5773 1221.31 83.349C1228.31 79.1207 1236.19 77 1244.94 77C1253.69 77 1261.19 79.0541 1267.44 83.1624" fill="#E5EAF0"></path><path d="M1357 44V182H1331V44H1357Z" fill="#E5EAF0"></path><path d="M1407 44V182H1381V44H1407Z" fill="#E5EAF0"></path><path d="M1495.7 104.25C1490.88 99.8886 1484.98 97.7145 1477.98 97.7145C1470.84 97.7145 1464.83 99.8886 1459.95 104.25C1455.09 108.599 1452.39 115.014 1451.89 123.471H1502.35C1502.73 115.014 1500.52 108.599 1495.7 104.25V104.25ZM1528.06 135.035H1451.89C1452.27 144.252 1454.76 151.028 1459.39 155.376C1464.02 159.738 1469.77 161.912 1476.66 161.912C1482.78 161.912 1487.89 160.418 1491.95 157.43C1496.01 154.443 1498.6 150.401 1499.73 145.306H1527.69C1526.3 152.522 1523.37 158.991 1518.88 164.713C1514.37 170.435 1508.58 174.917 1501.51 178.145C1494.44 181.386 1486.6 183 1477.98 183C1467.84 183 1458.84 180.853 1450.96 176.558C1443.07 172.263 1436.94 166.14 1432.57 158.177C1428.19 150.214 1426 140.824 1426 129.993C1426 119.176 1428.19 109.759 1432.57 101.729C1436.94 93.6997 1443.07 87.5773 1450.96 83.349C1458.84 79.1207 1467.84 77 1477.98 77C1488.22 77 1497.21 79.1207 1504.89 83.349C1512.59 87.5773 1518.53 93.3929 1522.71 100.796C1526.91 108.198 1529 116.628 1529 126.085C1529 128.699 1528.69 131.674 1528.06 135.035" fill="#E5EAF0"></path><path d="M1637.35 88.7647C1644.44 96.6166 1648 107.647 1648 121.842V182H1621.81V124.833C1621.81 116.607 1619.69 110.224 1615.46 105.684C1611.21 101.13 1605.42 98.86 1598.05 98.86C1590.58 98.86 1584.59 101.29 1580.1 106.151C1575.62 110.999 1573.38 117.982 1573.38 127.076V182H1547V78.4956H1573.38V99.2339C1576.12 92.2632 1580.64 86.815 1586.93 82.889C1593.23 78.9631 1600.49 77 1608.72 77C1620.69 77 1630.23 80.9261 1637.35 88.7647" fill="#E5EAF0"></path><path d="M1700.31 108.096C1695.31 113.463 1692.82 120.826 1692.82 130.182C1692.82 139.553 1695.31 146.888 1700.31 152.189C1705.31 157.503 1711.94 160.154 1720.18 160.154C1728.18 160.154 1734.77 157.436 1739.96 152.001C1745.15 146.58 1747.75 139.298 1747.75 130.182C1747.75 120.946 1745.15 113.611 1739.96 108.176C1734.77 102.755 1728.18 100.037 1720.18 100.037C1711.94 100.037 1705.31 102.728 1700.31 108.096V108.096ZM1734.44 83.1843C1740.68 87.2938 1745.12 92.8624 1747.75 99.8499V78.3118H1774V182.441C1774 192.052 1772.08 200.7 1768.28 208.383C1764.46 216.053 1758.78 222.077 1751.22 226.454C1743.65 230.818 1734.49 233 1723.75 233C1708.75 233 1696.62 229.453 1687.37 222.331C1678.13 215.21 1672.5 205.532 1670.5 193.297H1696.55C1698.06 198.544 1700.96 202.627 1705.28 205.572C1709.59 208.504 1715.12 209.976 1721.87 209.976C1729.62 209.976 1735.87 207.687 1740.62 203.136C1745.38 198.571 1747.75 191.678 1747.75 182.441V160.341C1745.12 167.328 1740.68 172.924 1734.44 177.1C1728.18 181.29 1720.68 183.378 1711.94 183.378C1703.19 183.378 1695.31 181.25 1688.31 177.006C1681.3 172.763 1675.85 166.619 1671.91 158.561C1667.97 150.502 1666 141.052 1666 130.182C1666 119.326 1667.97 109.876 1671.91 101.818C1675.85 93.7593 1681.3 87.615 1688.31 83.3717C1695.31 79.1283 1703.19 77 1711.94 77C1720.68 77 1728.18 79.0615 1734.44 83.1843Z" fill="#E5EAF0"></path><path d="M1861.65 104.239C1856.85 99.8888 1850.96 97.6973 1843.99 97.6973C1836.91 97.6973 1830.93 99.8888 1826.06 104.239C1821.2 108.6 1818.53 115.012 1818.04 123.48H1868.28C1868.66 115.012 1866.44 108.6 1861.65 104.239ZM1893.88 135.061H1818.04C1818.41 144.284 1820.9 151.066 1825.5 155.419C1830.12 159.784 1835.84 161.961 1842.69 161.961C1848.79 161.961 1853.87 160.465 1857.91 157.475C1861.95 154.483 1864.54 150.438 1865.66 145.339H1893.5C1892.13 152.561 1889.21 159.036 1884.72 164.764C1880.24 170.491 1874.48 174.977 1867.44 178.209C1860.4 181.452 1852.59 183.068 1843.99 183.068C1833.91 183.068 1824.94 180.919 1817.09 176.62C1809.26 172.321 1803.16 166.193 1798.79 158.221C1794.44 150.252 1792.26 140.853 1792.26 130.018C1792.26 119.183 1794.44 109.751 1798.79 101.711C1803.16 93.6839 1809.26 87.5611 1817.09 83.3149C1824.94 79.0823 1833.91 76.9729 1843.99 76.9729C1854.21 76.9729 1863.14 79.0823 1870.8 83.3149C1878.46 87.5611 1884.37 93.3825 1888.55 100.779C1892.71 108.194 1894.81 116.631 1894.81 126.094C1894.81 128.71 1894.5 131.699 1893.88 135.061" fill="#E5EAF0"></path><path d="M1979.42 86.4942C1987.02 92.8442 1991.76 101.315 1993.62 111.897H1968.96C1967.97 106.918 1965.72 102.93 1962.23 99.9428C1958.75 96.9531 1954.2 95.4603 1948.61 95.4603C1944.11 95.4603 1940.63 96.5194 1938.13 98.6346C1935.65 100.754 1934.39 103.618 1934.39 107.227C1934.39 110.094 1935.4 112.397 1937.38 114.138C1939.37 115.883 1941.88 117.251 1944.87 118.247C1947.86 119.245 1952.15 120.429 1957.75 121.797C1965.59 123.543 1971.98 125.379 1976.9 127.308C1981.82 129.24 1986.06 132.29 1989.61 136.462C1993.16 140.638 1994.92 146.271 1994.92 153.361C1994.92 162.213 1991.47 169.37 1984.56 174.843C1977.64 180.33 1968.34 183.068 1956.63 183.068C1943.18 183.068 1932.4 180.049 1924.32 174.003C1916.22 167.968 1911.29 159.343 1909.56 148.14H1934.77C1935.4 153.241 1937.64 157.26 1941.51 160.183C1945.36 163.107 1950.41 164.576 1956.63 164.576C1961.11 164.576 1964.55 163.482 1966.91 161.305C1969.27 159.129 1970.46 156.299 1970.46 152.8C1970.46 149.81 1969.43 147.393 1967.37 145.524C1965.32 143.655 1962.77 142.227 1959.71 141.225C1956.66 140.224 1952.34 139.049 1946.73 137.675C1939 135.932 1932.76 134.158 1927.97 132.35C1923.17 130.547 1919.05 127.652 1915.63 123.666C1912.21 119.68 1910.49 114.203 1910.49 107.227C1910.49 98.2611 1913.91 90.9765 1920.77 85.372C1927.61 79.7704 1937.08 76.9668 1949.16 76.9668C1961.74 76.9668 1971.82 80.1426 1979.42 86.4942" fill="#E5EAF0"></path><path d="M531.927 170.787L367.306 258.291C361.954 261.136 355.921 262.645 349.887 262.645C336.085 262.645 323.498 255.072 317.038 242.892C312.379 234.105 311.405 224.061 314.315 214.552C317.225 205.043 323.658 197.257 332.428 192.596L497.049 105.093C502.401 102.235 508.421 100.752 514.468 100.752C519.66 100.752 524.692 101.821 529.284 103.824L531.914 105.226C538.481 108.698 543.793 114.014 547.277 120.585C547.397 120.785 547.531 120.985 547.664 121.186C556.741 139.189 549.786 161.292 531.927 170.787ZM17.7363 155.469C17.6562 155.308 17.5361 155.175 17.4293 155.015C8.20588 136.972 15.1335 114.748 33.0731 105.226L197.694 17.709C203.046 14.8777 209.066 13.3553 215.113 13.3553C228.901 13.3553 241.488 20.9276 247.962 33.1077C252.607 41.8687 253.568 51.9387 250.658 61.4343C247.749 70.9432 241.328 78.756 232.572 83.4037L67.9514 170.921C62.5989 173.765 56.5656 175.261 50.5323 175.261C45.3399 175.261 40.3078 174.179 35.716 172.203L33.0731 170.787C26.5193 167.315 21.2201 162.013 17.7363 155.469V155.469ZM559.103 114.214C553.751 104.158 545.315 96.4117 535.317 91.8843L411.608 26.1363L378.986 8.80106L378.866 8.73428L373.567 5.92967C366.652 2.25697 358.91 0.253683 351.115 0.0533538C350.968 0.0533538 350.822 0.0267476 350.675 0.0267476C350.408 0.0267476 350.141 1.09733e-05 349.887 1.09733e-05L349.74 0.0133141C333.923 -0.146949 318.279 7.06487 308.335 20.754L201.866 162.534C199.663 165.472 200.25 169.665 203.201 171.882C206.15 174.099 210.328 173.498 212.543 170.547L319.067 28.6738C331.107 12.0866 354.399 8.40042 370.99 20.4469C382.136 28.5669 387.876 42.0824 385.953 55.7448C385.113 61.728 382.777 67.4975 379.279 72.3054L265.635 223.754C265.475 219.36 264.754 214.953 263.432 210.653C259.481 197.738 250.752 187.134 238.832 180.79L148.312 132.498C145.053 130.761 141.01 132.003 139.288 135.262C137.552 138.508 138.793 142.554 142.051 144.29L232.572 192.596C241.342 197.257 247.762 205.043 250.672 214.552C253.582 224.061 252.621 234.105 247.962 242.892C243.998 250.358 237.724 256.074 230.303 259.399C229.302 259.707 228.287 259.987 227.259 260.241C226.338 260.428 225.511 260.815 224.803 261.349C221.693 262.191 218.436 262.645 215.113 262.645C209.066 262.645 203.046 261.136 197.694 258.291L86.2248 199.034L63.4131 186.92C67.1505 185.919 70.7812 184.516 74.2116 182.713L238.832 95.2097C250.738 88.8659 259.468 78.2752 263.419 65.3606C267.37 52.4194 266.062 38.7437 259.748 26.8441C250.952 10.2836 233.853 1.09733e-05 215.113 1.09733e-05C206.89 1.09733e-05 198.708 2.05664 191.433 5.92967L26.8129 93.4201C2.21262 106.495 -7.171 137.159 5.89666 161.772C11.2492 171.842 19.6851 179.575 29.6827 184.116L31.9919 185.344H32.0186L68.8991 204.95L191.433 270.084C198.708 273.957 206.89 276 215.113 276C222.174 276 229.008 274.531 235.242 271.833C245.092 268.481 253.702 262.191 259.802 253.79L390.025 80.2518C394.857 73.5741 398.02 65.7613 399.168 57.6146C400.343 49.2408 399.395 40.9606 396.645 33.308L416.547 43.8721L501.574 89.0797C497.836 90.068 494.206 91.4703 490.788 93.2866L416.56 132.738L364.238 105.106C360.967 103.397 356.95 104.665 355.241 107.937C353.533 111.209 354.787 115.243 358.058 116.952L402.278 140.35L326.155 180.79C314.248 187.134 305.505 197.738 301.554 210.653C297.603 223.541 298.911 237.23 305.252 249.156C314.035 265.703 331.133 276 349.887 276C358.096 276 366.292 273.957 373.567 270.084L538.187 182.58C562.787 169.492 572.171 138.855 559.103 114.214" fill="#F0402C"></path><path d="M416 44L396.396 33.4573L396.382 33.4307C392.556 23.2213 386.508 13.5982 379 9L411.135 26.3001C413.581 31.9247 415.237 37.8557 416 44" fill="#C73622"></path></svg>